<?xml version="1.0" encoding="UTF-8" standalone="no"?>
<!-- Created with Inkscape (http://www.inkscape.org/) -->

<svg
   width="5.2916665mm"
   height="5.2916665mm"
   viewBox="0 0 5.2916665 5.2916665"
   version="1.1"
   id="svg1"
   xml:space="preserve"
   inkscape:version="1.3.2 (091e20ef0f, 2023-11-25)"
   sodipodi:docname="airpods.svg"
   xmlns:inkscape="http://www.inkscape.org/namespaces/inkscape"
   xmlns:sodipodi="http://sodipodi.sourceforge.net/DTD/sodipodi-0.dtd"
   xmlns="http://www.w3.org/2000/svg"
   xmlns:svg="http://www.w3.org/2000/svg"><sodipodi:namedview
     id="namedview1"
     pagecolor="#ffffff"
     bordercolor="#000000"
     borderopacity="0.25"
     inkscape:showpageshadow="2"
     inkscape:pageopacity="0.0"
     inkscape:pagecheckerboard="0"
     inkscape:deskcolor="#d1d1d1"
     inkscape:document-units="mm"
     inkscape:zoom="15.183818"
     inkscape:cx="13.600005"
     inkscape:cy="10.768043"
     inkscape:window-width="1920"
     inkscape:window-height="1011"
     inkscape:window-x="0"
     inkscape:window-y="0"
     inkscape:window-maximized="1"
     inkscape:current-layer="layer1" /><defs
     id="defs1" /><g
     inkscape:label="Layer 1"
     inkscape:groupmode="layer"
     id="layer1"><path
       class="st0"
       d="m 1.2414448,4.2789054 c 0,0.098071 0.084061,0.1821337 0.1821339,0.1961443 h 0.2101544 c 0.1120824,-0.014011 0.196144,-0.1120825 0.196144,-0.224165 V 2.9899581 C 1.6337331,3.0600098 1.4375889,3.1020406 1.2414448,3.1020406 Z M 1.8018566,1.0425273 c -0.2381751,0 -0.47635,0.056041 -0.6724942,0.1961442 -0.1961441,0.1120822 -0.3642677,0.2521851 -0.5043706,0.4203088 0.1120824,0.028022 0.2241647,0.084062 0.3222368,0.1541132 0.098072,0.070052 0.1961442,0.1541133 0.2521854,0.2661957 0.098072,0.1260925 0.1541132,0.2802058 0.1821338,0.4483293 0.014011,0.084062 0.014011,0.1821338 0,0.2661958 0,0.042032 -0.014011,0.070052 -0.028021,0.1120819 0.1681235,-0.014011 0.3362471,-0.05604 0.5043706,-0.1120819 l 0.04203,-0.028023 C 2.0260213,2.6817318 2.152114,2.59767 2.2501861,2.4855877 l 0.014011,-0.014011 C 2.4042991,2.3314746 2.488361,2.1493408 2.5023713,1.9672069 2.5163814,1.7570525 2.44633,1.546898 2.3342476,1.3787746 2.0960728,1.0705481 1.8999285,1.0425275 1.8018566,1.0425273 Z m 0.3222368,0.6304633 -0.3222368,0.238175 c -0.056041,0.042031 -0.1401029,0.028021 -0.1821338,-0.028021 v 0 C 1.5776919,1.8271038 1.5917023,1.743042 1.6477433,1.6870007 L 1.9699802,1.4488259 c 0.070052,-0.042031 0.1541132,-0.014011 0.1821338,0.04203 0.028022,0.070052 0.014011,0.140103 -0.028021,0.1821347 z M 1.2554551,2.5696494 C 1.2274345,2.4015258 1.157383,2.2474127 1.059311,2.1213201 1.0032698,2.0372583 0.9332183,1.9531965 0.8491565,1.8971551 0.7791051,1.8411141 0.7090536,1.8130931 0.6249918,1.7990831 c -0.070052,-0.014011 -0.1260926,0 -0.19614414,0.028022 -0.14010293,0.070052 -0.2661956,0.1821336 -0.32223673,0.336247 -0.0280213,0.070052 -0.0420313,0.1401027 -0.0560413,0.2241646 0,0.056041 0,0.1260926 0.0140101,0.1821338 0.0140102,0.02802 0.0140102,0.056041 0.0280213,0.084061 0.0280203,0.056041 0.0560414,0.1260925 0.098072,0.1681234 0.0420312,0.070052 0.11208228,0.1401033 0.18213373,0.1961443 0.12609264,0.084062 0.26619564,0.1401028 0.42030884,0.1260927 0.084062,0 0.1681236,-0.028023 0.238175,-0.056041 0.070052,-0.028022 0.1260928,-0.084062 0.1681236,-0.1541137 0.056041,-0.112082 0.084061,-0.2381745 0.056041,-0.3642678 z M 0.5549403,2.9058962 C 0.44285799,2.8778761 0.35879623,2.8078244 0.30275503,2.7237627 0.23270359,2.639701 0.20468297,2.5276185 0.21869319,2.4295466 c 0.0140102,-0.070052 0.0980721,-0.070052 0.15411331,0 l 0.238175,0.336247 c 0.028021,0.056041 0,0.1401026 -0.0560412,0.1401026 z m 3.4885635,0.1961444 c -0.2101545,0 -0.4062986,-0.042032 -0.5884325,-0.1120825 v 1.2609266 c 0,0.1120825 0.084062,0.2101544 0.1961443,0.224165 H 3.86137 C 3.9594425,4.4610389 4.0435038,4.3769772 4.0435038,4.2789054 Z M 3.8893907,2.7938143 c -0.014011,-0.084061 -0.014011,-0.1681237 0,-0.2661958 C 3.9174107,2.359495 3.9734519,2.2193921 4.0715244,2.0792892 4.1415761,1.9672068 4.2256379,1.8691347 4.3377197,1.7990832 4.4357921,1.7290317 4.533864,1.6729906 4.6599568,1.64497 4.519854,1.4768464 4.3517305,1.3227332 4.1555862,1.2246611 3.9594421,1.0985684 3.7212671,1.028517 3.483092,1.028517 c -0.1120824,0 -0.2942162,0.028021 -0.5323913,0.3082265 -0.1260926,0.1961441 -0.1821337,0.4062985 -0.1681234,0.616453 0.014011,0.1961441 0.098072,0.3642676 0.238175,0.5043706 l 0.01401,0.014011 C 3.1468449,2.5836607 3.2589273,2.6677225 3.38502,2.7517842 l 0.042031,0.028021 c 0.1541133,0.070052 0.3362471,0.098072 0.5043705,0.1120826 -0.01401,-0.028021 -0.02802,-0.05604 -0.042031,-0.098073 z M 3.6652258,1.8831451 c -0.04203,0.056041 -0.1260927,0.070052 -0.1821338,0.028021 0,0 0,0 0,0 L 3.1608552,1.6729906 c -0.056041,-0.042031 -0.070051,-0.140103 -0.01401,-0.1961442 0.042031,-0.056041 0.1120823,-0.070052 0.1821337,-0.028021 l 0.3222369,0.2381749 c 0.042031,0.042031 0.056041,0.1260926 0.01401,0.1961448 z M 5.1783375,2.1633508 C 5.1082865,2.0232479 4.9962039,1.8971551 4.8561011,1.8271038 4.8000596,1.799083 4.7300085,1.799083 4.6599568,1.799083 4.5758951,1.8130928 4.4918333,1.8411144 4.4357921,1.8971555 4.3517304,1.9531967 4.2816789,2.0372585 4.2256379,2.1213203 4.1275654,2.2474129 4.0575141,2.401526 4.0294935,2.5696496 c -0.028022,0.1120825 0,0.238175 0.056041,0.3502576 0.042031,0.070052 0.098071,0.1260926 0.1681233,0.1541129 0.070052,0.042032 0.1541135,0.056041 0.2381753,0.056041 0.1541133,0.014011 0.2942161,-0.028023 0.4203088,-0.1120825 0.070052,-0.05604 0.1260927,-0.1120825 0.1821336,-0.1961443 0.042028,-0.05604 0.070052,-0.1120822 0.098072,-0.1681233 0.014011,-0.028022 0.014011,-0.056041 0.028023,-0.084062 0.014009,-0.056041 0.028018,-0.1120822 0.014009,-0.1821337 0,-0.070052 -0.028023,-0.1541133 -0.056042,-0.2241645 z M 4.9962039,2.7237627 c -0.056041,0.098071 -0.1541135,0.1681236 -0.2661954,0.1821335 -0.070052,0 -0.098072,-0.084062 -0.056041,-0.1541129 l 0.238175,-0.3362471 c 0.042032,-0.070052 0.1260928,-0.070052 0.1541134,0 0.028023,0.1120823 -0.014011,0.2241647 -0.070052,0.3082265 z"
       id="path1"
       style="stroke-width:0.140104;fill:#ffffff;fill-opacity:1" /></g><style
     type="text/css"
     id="style1">	.st0{fill:#1D1D1F;}</style></svg>
