<?xml version="1.0" encoding="UTF-8" standalone="no"?>
<svg
   viewBox="0 0 24.199616 20.456628"
   fill="none"
   x="0px"
   y="0px"
   version="1.1"
   id="svg2"
   sodipodi:docname="noun-airpods-pro-case-4569472.svg"
   width="24.199615"
   height="20.456629"
   inkscape:version="1.3.2 (091e20ef0f, 2023-11-25)"
   xmlns:inkscape="http://www.inkscape.org/namespaces/inkscape"
   xmlns:sodipodi="http://sodipodi.sourceforge.net/DTD/sodipodi-0.dtd"
   xmlns="http://www.w3.org/2000/svg"
   xmlns:svg="http://www.w3.org/2000/svg">
  <defs
     id="defs2" />
  <sodipodi:namedview
     id="namedview2"
     pagecolor="#ffffff"
     bordercolor="#000000"
     borderopacity="0.25"
     inkscape:showpageshadow="2"
     inkscape:pageopacity="0.0"
     inkscape:pagecheckerboard="0"
     inkscape:deskcolor="#d1d1d1"
     inkscape:zoom="18.238281"
     inkscape:cx="6.2231741"
     inkscape:cy="8.7453416"
     inkscape:window-width="1920"
     inkscape:window-height="1011"
     inkscape:window-x="0"
     inkscape:window-y="0"
     inkscape:window-maximized="1"
     inkscape:current-layer="svg2" />
  <path
     fill-rule="evenodd"
     clip-rule="evenodd"
     d="m 0.62400942,7.4538445 c 0,-3.03757 2.46242998,-5.5 5.49999998,-5.5 H 18.124009 c 3.0376,0 5.5,2.46243 5.5,5.5 v 5.9999995 c 0,3.0376 -2.4624,5.5 -5.5,5.5 H 6.1240094 c -3.03757,0 -5.49999998,-2.4624 -5.49999998,-5.5 z m 5.49999998,-4.5 c -2.48528,0 -4.5,2.01472 -4.5,4.5 H 22.624009 c 0,-2.48528 -2.0147,-4.5 -4.5,-4.5 z m 2.04268,5.5 c 0.10296,0.2913 0.38077,0.5 0.70732,0.5 h 6.4999996 c 0.3266,0 0.6044,-0.2087 0.7073,-0.5 h 6.5427 v 4.9999995 c 0,2.4853 -2.0147,4.5 -4.5,4.5 H 6.1240094 c -2.48528,0 -4.5,-2.0147 -4.5,-4.5 V 8.4538445 Z"
     fill="#000000"
     id="path1"
     style="fill:#ffffff;stroke:#ffffff;stroke-opacity:1;stroke-width:0;stroke-dasharray:none;paint-order:stroke fill markers;stroke-linecap:butt;stroke-linejoin:miter;fill-opacity:1" />
</svg>
